{"title":"Above &amp; Beyond feat. Zoë Johnston We're All We Need 4K","uid":11340770,"size":600415909,"categoryP":"video","categoryS":"music_videos","magnet":"?xt=urn:btih:3543debb5e10f3847ab6ce14c276cc14c7ae0657&amp;dn=Above+%26amp%3B+Beyond+feat.+Zo%26euml%3B+Johnston+We%27re+All+We+Need+4K+&amp;tr=udp%3A%2F%2Ftracker.openbittorrent.com%3A80&amp;tr=udp%3A%2F%2Fopen.demonii.com%3A1337&amp;tr=udp%3A%2F%2Ftracker.coppersurfer.tk%3A6969&amp;tr=udp%3A%2F%2Fexodus.desync.com%3A6969","seeders":2,"leechers":0,"uploader":"Liebe_Ist","files":1,"time":1414799016,"description":"Above.and.Beyond.feat.Zoe.Johnston.Were.All.We.Need.4K.H264-Liebe_Ist.mp4\n\nGeneral\nFormat                         : MPEG-4\nFormat profile                 : Base Media\nCodec ID                       : isom\nFile size                      : 573 MiB\nDuration                       : 4mn 23s\nOverall bit rate               : 18.2 Mbps\nWriting application            : Lavf55.33.100\n\nVideo\nID                             : 1\nFormat                         : AVC\nFormat/Info                    : Advanced Video Codec\nFormat profile                 : &lt;a class=&quot;__cf_email__&quot; href=&quot;/cdn-cgi/l/email-protection&quot; data-cfemail=&quot;99d1f0fef1d9d5acb7a8&quot;&gt;[email&amp;#160;protected]&lt;/a&gt;&lt;script cf-hash='f9e31' type=&quot;text/javascript&quot;&gt;\n/* &lt;![CDATA[ */!function(){try{var t=&quot;currentScript&quot;in document?document.currentScript:function(){for(var t=document.getElementsByTagName(&quot;script&quot;),e=t.length;e--;)if(t[e].getAttribute(&quot;cf-hash&quot;))return t[e]}();if(t&amp;&amp;t.previousSibling){var e,r,n,i,c=t.previousSibling,a=c.getAttribute(&quot;data-cfemail&quot;);if(a){for(e=&quot;&quot;,r=parseInt(a.substr(0,2),16),n=2;a.length-n;n+=2)i=parseInt(a.substr(n,2),16)^r,e+=String.fromCharCode(i);e=document.createTextNode(e),c.parentNode.replaceChild(e,c)}}}catch(u){}}();/* ]]&gt; */&lt;/script&gt;\nFormat settings, CABAC         : No\nFormat settings, ReFrames      : 2 frames\nCodec ID                       : avc1\nCodec ID/Info                  : Advanced Video Coding\nDuration                       : 4mn 23s\nBit rate                       : 18.1 Mbps\nWidth                          : 4 096 pixels\nHeight                         : 2 160 pixels\nDisplay aspect ratio           : 1.896\nFrame rate mode                : Variable\nFrame rate                     : 23.976 fps\nMinimum frame rate             : 23.974 fps\nMaximum frame rate             : 23.981 fps\nColor space                    : YUV\nChroma subsampling             : 4:2:0\nBit depth                      : 8 bits\nScan type                      : Progressive\nBits/(Pixel*Frame)             : 0.085\nStream size                    : 568 MiB (99%)\n\nAudio\nID                             : 2\nFormat                         : AAC\nFormat/Info                    : Advanced Audio Codec\nFormat profile                 : LC\nCodec ID                       : 40\nDuration                       : 4mn 23s\nBit rate mode                  : Constant\nBit rate                       : 126 Kbps\nChannel count                  : 2 channels\nChannel positions              : Front: L R\nSampling rate                  : 44.1 KHz\nCompression mode               : Lossy\nDelay relative to video        : 42ms\nStream size                    : 3.95 MiB (1%)","torrent":{"xt":"urn:btih:3543debb5e10f3847ab6ce14c276cc14c7ae0657","amp;dn":"Above+%26amp%3B+Beyond+feat.+Zo%26euml%3B+Johnston+We%27re+All+We+Need+4K+","amp;tr":["udp%3A%2F%2Ftracker.openbittorrent.com%3A80","udp%3A%2F%2Fopen.demonii.com%3A1337","udp%3A%2F%2Ftracker.coppersurfer.tk%3A6969","udp%3A%2F%2Fexodus.desync.com%3A6969"],"infoHash":"3543debb5e10f3847ab6ce14c276cc14c7ae0657","infoHashBuffer":{"type":"Buffer","data":[53,67,222,187,94,16,243,132,122,182,206,20,194,118,204,20,199,174,6,87]},"announce":[],"urlList":[]}}